#!OML:ASF H:\LiuWeirdWalks\Patient Classification 1\Patient 1\Session 1\male.ASF
:FULLY-SPECIFIED
:DEGREES
543
root 3.63052 17.7456 2.6383 -7.78545 12.7328 4.37784
lowerback 18.9613 -2.58338 -11.9037
upperback 4.91391 -5.52149 1.65118
thorax -3.88354 -2.71528 9.72638
lowerneck -12.3378 2.28549 7.97195
upperneck 20.1494 2.95946 -6.90802
head 8.51682 1.30901 -3.34356
rclavicle -3.61788e-014 1.86858e-014
rhumerus -42.6061 -1.32903 -53.4408
rradius 56.6144
rwrist 2.80577
rhand 0.588666 6.75792
rfingers 7.12502
rthumb 26.1541 -21.4606
lclavicle -3.61788e-014 1.86858e-014
lhumerus -9.67234 -8.24919 61.4348
lradius 66.8742
lwrist -11.4162
lhand -10.5223 -4.77915
lfingers 7.12502
lthumb 15.4806 24.621
rfemur -84.4649 -20.0921 29.2509
rtibia 102.609
rfoot -1.11009 -1.92514
rtoes -6.03244
lfemur -1.83681 -3.34204 -29.5647
ltibia 29.1642
lfoot -10.5876 18.7605
ltoes -8.10089
544
root 3.66669 17.7531 2.64299 -8.02383 12.3607 4.12438
lowerback 18.8799 -2.41229 -11.5377
upperback 4.93919 -5.20622 1.8496
thorax -3.90763 -2.56164 9.67443
lowerneck -12.2684 2.18319 7.8595
upperneck 20.2476 2.89272 -7.09535
head 8.53144 1.25236 -3.39821
rclavicle -2.93207e-014 2.98177e-014
rhumerus -41.6521 -1.21628 -53.2389
rradius 56.4821
rwrist 1.80544
rhand 0.173661 6.50373
rfingers 7.12502
rthumb 25.7567 -21.773
lclavicle -2.93207e-014 2.98177e-014
lhumerus -10.32 -7.7425 61.4891
lradius 65.7821
lwrist -12.422
lhand -10.4574 -4.96392
lfingers 7.12502
lthumb 15.5431 24.4314
rfemur -85.3404 -20.857 29.4396
rtibia 101.397
rfoot -0.417487 -1.11703
rtoes -6.37467
lfemur -1.51918 -3.36231 -29.4494
ltibia 29.0032
lfoot -10.5212 19.0395
ltoes -8.06869
545
root 3.70357 17.7601 2.64726 -8.22721 11.9818 3.89958
lowerback 18.8029 -2.24111 -11.1764
upperback 4.95001 -4.89402 2.04227
thorax -3.94758 -2.40737 9.61933
lowerneck -12.2109 2.08223 7.76493
upperneck 20.3593 2.82491 -7.28765
head 8.55301 1.1958 -3.458
rclavicle 3.06128e-014 1.19271e-014
rhumerus -40.6892 -1.108 -53.0433
rradius 56.3634
rwrist 0.736816
rhand -0.320636 6.17712
rfingers 7.12502
rthumb 25.2832 -22.1674
lclavicle 3.06128e-014 1.19271e-014
lhumerus -11.0427 -7.08671 61.4843
lradius 64.6955
lwrist -13.1335
lhand -10.424 -5.05221
lfingers 7.12502
lthumb 15.5753 24.3406
rfemur -86.0745 -21.6209 29.4645
rtibia 100.11
rfoot 0.168684 -0.44959
rtoes -6.68773
lfemur -1.23291 -3.37768 -29.3643
ltibia 28.8421
lfoot -10.441 19.3193
ltoes -8.02015
546
root 3.74031 17.767 2.65135 -8.40309 11.5873 3.68147
lowerback 18.7165 -2.06527 -10.8091
upperback 4.95842 -4.57414 2.23587
thorax -3.98567 -2.24921 9.55847
lowerneck -12.1912 1.98562 7.69485
upperneck 20.4784 2.75686 -7.48493
head 8.58446 1.13974 -3.52394
rclavicle -9.14409e-015 -1.59028e-015
rhumerus -39.7141 -1.01635 -52.8494
rradius 56.2505
rwrist -0.353737
rhand -0.915406 5.80372
rfingers 7.12502
rthumb 24.7133 -22.6201
lclavicle -9.14409e-015 -1.59028e-015
lhumerus -11.8387 -6.31143 61.4077
lradius 63.6503
lwrist -13.5296
lhand -10.3768 -5.0353
lfingers 7.12502
lthumb 15.6207 24.354
rfemur -86.6483 -22.3691 29.3521
rtibia 98.7571
rfoot 0.65012 0.0146393
rtoes -7.00355
lfemur -0.975573 -3.38496 -29.2814
ltibia 28.6812
lfoot -10.3584 19.6005
ltoes -7.9478
547
root 3.77746 17.7734 2.65559 -8.55723 11.1883 3.47529
lowerback 18.6222 -1.88814 -10.4347
upperback 4.96323 -4.25136 2.42639
thorax -4.02319 -2.08937 9.48789
lowerneck -12.2049 1.89667 7.67416
upperneck 20.6073 2.69295 -7.70718
head 8.62675 1.08624 -3.60684
rclavicle 5.14852e-014 -4.77083e-015
rhumerus -38.7397 -0.936797 -52.6512
rradius 56.1319
rwrist -1.3976
rhand -1.63213 5.43938
rfingers 7.12502
rthumb 24.0262 -23.0768
lclavicle 5.14852e-014 -4.77083e-015
lhumerus -12.7077 -5.4512 61.2505
lradius 62.6622
lwrist -13.6419
lhand -10.2909 -4.92362
lfingers 7.12502
lthumb 15.7035 24.4592
rfemur -87.0563 -23.1253 29.0979
rtibia 97.3602
rfoot 1.06493 0.244905
rtoes -7.25571
lfemur -0.735911 -3.39605 -29.2124
ltibia 28.5213
lfoot -10.2806 19.8866
ltoes -7.8499
548
root 3.81479 17.7794 2.6601 -8.68221 10.7888 3.29323
lowerback 18.5066 -1.70428 -10.0669
upperback 4.96962 -3.91982 2.61125
thorax -4.04759 -1.926 9.41039
lowerneck -12.2935 1.80766 7.67188
upperneck 20.7945 2.62255 -7.92625
head 8.70231 1.02992 -3.69426
rclavicle 3.43897e-014 -1.59028e-014
rhumerus -37.7773 -0.892723 -52.4331
rradius 56.0028
rwrist -2.3348
rhand -2.4668 5.18019
rfingers 7.12502
rthumb 23.2256 -23.4393
lclavicle 3.43897e-014 -1.59028e-014
lhumerus -13.6117 -4.52843 61.0145
lradius 61.7208
lwrist -13.4887
lhand -10.1534 -4.76946
lfingers 7.12502
lthumb 15.8359 24.6029
rfemur -87.3036 -23.8868 28.6939
rtibia 95.9312
rfoot 1.45059 0.210037
rtoes -7.4217
lfemur -0.519328 -3.41891 -29.1718
ltibia 28.363
lfoot -10.2083 20.1823
ltoes -7.70881
